<svg width="24" height="24" fill="none" xmlns="http://www.w3.org/2000/svg"><g clip-path="url(#a)"><path d="M12 8.81A3.197 3.197 0 0 0 8.81 12 3.197 3.197 0 0 0 12 15.19 3.197 3.197 0 0 0 15.19 12 3.197 3.197 0 0 0 12 8.81ZM21.568 12c0-1.32.012-2.63-.063-3.949-.074-1.531-.423-2.89-1.543-4.01-1.122-1.123-2.48-1.47-4.011-1.544-1.321-.074-2.63-.062-3.949-.062-1.32 0-2.63-.012-3.948.062-1.532.074-2.891.424-4.011 1.544-1.122 1.122-1.47 2.479-1.544 4.01-.074 1.321-.062 2.63-.062 3.949s-.012 2.63.062 3.949c.075 1.531.424 2.89 1.544 4.01 1.122 1.123 2.48 1.47 4.01 1.544 1.322.074 2.63.062 3.95.062 1.32 0 2.63.012 3.948-.062 1.532-.074 2.89-.424 4.01-1.544 1.123-1.122 1.47-2.479 1.544-4.01.077-1.319.063-2.628.063-3.949ZM12 16.908A4.901 4.901 0 0 1 7.092 12 4.901 4.901 0 0 1 12 7.092 4.901 4.901 0 0 1 16.908 12 4.901 4.901 0 0 1 12 16.908Zm5.11-8.87a1.145 1.145 0 0 1-1.147-1.147c0-.634.512-1.146 1.146-1.146a1.145 1.145 0 0 1 .811 1.957 1.146 1.146 0 0 1-.81.335Z" fill="#fff"/></g><defs><clipPath id="a"><path fill="#fff" transform="translate(2.4 2.4)" d="M0 0h19.2v19.2H0z"/></clipPath></defs></svg>