<svg width="24" height="24" fill="none" xmlns="http://www.w3.org/2000/svg"><g clip-path="url(#a)"><path d="M21.301 6.521a7.788 7.788 0 0 1-2.233.612 3.898 3.898 0 0 0 1.71-2.152 7.763 7.763 0 0 1-2.47.944 3.89 3.89 0 0 0-6.626 3.547A11.043 11.043 0 0 1 3.666 5.41 3.89 3.89 0 0 0 4.87 10.6a3.88 3.88 0 0 1-1.761-.487v.05a3.89 3.89 0 0 0 3.12 3.814 3.917 3.917 0 0 1-1.757.066 3.891 3.891 0 0 0 3.633 2.7 7.803 7.803 0 0 1-4.83 1.666c-.31 0-.62-.018-.928-.055a11 11 0 0 0 5.96 1.747c7.154 0 11.065-5.925 11.065-11.064 0-.167-.004-.335-.012-.502a7.906 7.906 0 0 0 1.94-2.012l.001-.003Z" fill="#fff"/></g><defs><clipPath id="a"><path fill="#fff" transform="translate(2.4 2.4)" d="M0 0h19.2v19.2H0z"/></clipPath></defs></svg>